<?xml version="1.0" standalone="no"?>
<!DOCTYPE svg PUBLIC "-//W3C//DTD SVG 20010904//EN"
 "http://www.w3.org/TR/2001/REC-SVG-20010904/DTD/svg10.dtd">
<svg version="1.0" xmlns="http://www.w3.org/2000/svg"
 width="700.000000pt" height="700.000000pt" viewBox="0 0 700.000000 700.000000"
 preserveAspectRatio="xMidYMid meet">
<metadata>
Created by potrace 1.14, written by Peter Selinger 2001-2017
</metadata>
<g transform="translate(0.000000,700.000000) scale(0.100000,-0.100000)"
fill="#000000" stroke="none">
<path d="M3660 6993 c-50 -8 -165 -36 -172 -42 -4 -3 14 -4 41 -3 26 2 67 -2
92 -9 l44 -12 -50 -13 c-27 -7 -58 -11 -67 -8 -10 3 -26 1 -36 -5 -12 -7 -22
-7 -29 0 -5 5 -33 12 -61 16 -29 3 -52 10 -52 14 0 5 5 9 12 9 6 0 8 3 5 6 -4
4 -25 -6 -49 -22 l-41 -29 81 -3 c73 -2 82 -5 82 -22 0 -30 -34 -42 -96 -34
l-55 6 7 -27 c6 -23 4 -26 -12 -22 -51 15 -95 18 -108 8 -7 -6 -34 -15 -60
-20 -42 -8 -50 -6 -76 15 -32 27 -72 31 -94 9 -23 -23 -96 -53 -146 -60 -33
-5 -41 -4 -30 4 43 31 -63 2 -185 -49 -115 -49 -157 -57 -178 -36 -15 15 -22
15 -94 -4 -66 -17 -84 -27 -125 -67 -50 -49 -60 -51 -30 -5 l17 27 -35 -23
c-19 -13 -53 -32 -75 -43 -46 -22 -203 -150 -235 -192 l-22 -27 27 10 c46 17
49 0 7 -44 -21 -22 -42 -49 -45 -58 -8 -23 -39 -23 -60 0 -36 39 -10 122 46
146 34 14 145 106 129 106 -12 0 -81 -46 -113 -77 -16 -14 -28 -20 -31 -13 -2
7 -16 6 -47 -5 -57 -20 -61 -19 -61 8 1 33 28 62 88 91 55 28 76 27 65 -1 -11
-29 56 -6 116 40 77 58 111 79 125 74 13 -5 109 44 151 78 53 44 17 38 -47 -7
-93 -66 -92 -65 -84 -34 5 21 3 26 -13 26 -11 0 -23 -5 -26 -10 -12 -20 -103
-60 -107 -48 -9 26 -221 -93 -309 -174 l-36 -33 7 -135 c6 -126 5 -136 -13
-149 -10 -7 -87 -73 -170 -145 -83 -72 -168 -146 -189 -164 -21 -19 -38 -28
-38 -20 0 36 136 218 163 218 8 0 8 -3 -1 -12 -7 -7 -12 -16 -12 -22 0 -19 53
40 82 92 17 29 37 52 46 52 23 1 72 67 72 97 0 32 -24 39 -49 14 -12 -12 -34
-21 -51 -21 -24 0 -30 -4 -30 -22 0 -13 -8 -35 -18 -49 -15 -24 -182 -203
-182 -196 0 2 7 26 16 53 21 61 48 101 86 124 23 14 26 19 13 24 -23 8 -13 20
55 66 33 22 65 50 71 63 9 16 3 14 -24 -12 -19 -18 -40 -30 -45 -27 -6 4 -28
-15 -49 -41 -51 -63 -103 -114 -112 -109 -4 3 -17 -23 -29 -57 -12 -34 -40
-84 -62 -112 -22 -27 -54 -71 -70 -97 -17 -25 -69 -79 -116 -118 -92 -78 -123
-115 -107 -131 17 -17 40 1 98 72 31 38 60 69 66 69 11 0 -16 -55 -32 -66 -8
-5 -7 -9 2 -14 19 -12 -15 -59 -57 -76 -18 -8 -40 -28 -49 -44 -18 -35 -10
-38 22 -8 33 30 29 9 -12 -65 -36 -66 -47 -121 -21 -111 7 3 23 27 36 53 12
27 33 61 46 77 l23 29 1 -30 c0 -39 9 -26 54 73 32 73 36 88 27 114 -22 63 -6
132 33 142 54 15 127 -5 139 -37 6 -17 -86 -97 -112 -97 -23 0 -66 -182 -50
-212 13 -23 17 -19 -49 -52 -60 -30 -114 -81 -184 -171 -48 -64 -50 -87 -8
-103 16 -6 13 -12 -22 -52 l-40 -45 3 53 c2 28 3 52 2 52 -1 0 -27 -48 -59
-106 -31 -58 -64 -113 -74 -122 -10 -9 -21 -33 -24 -52 l-7 -35 20 35 c10 19
28 43 39 53 41 38 42 8 2 -104 -22 -61 -40 -128 -40 -150 l0 -39 -47 6 c-27 4
-53 12 -59 18 -18 18 -34 99 -35 178 l0 73 -25 -55 c-28 -61 -90 -224 -107
-282 -22 -75 -38 -38 -33 75 3 60 11 93 37 153 24 55 35 71 40 57 4 -13 8 -7
13 22 4 21 21 69 37 105 17 36 33 84 36 108 10 73 20 55 22 -38 0 -49 7 -104
14 -122 l13 -33 19 48 c15 40 16 54 6 87 -18 60 -6 101 45 151 49 48 58 71 18
44 -25 -16 -25 -16 -14 7 7 13 31 42 53 66 23 23 36 42 30 42 -7 0 -15 -4 -18
-10 -3 -5 -14 -10 -23 -10 -15 0 -14 3 4 18 11 9 44 45 73 80 29 34 66 70 82
79 21 13 26 20 17 30 -10 12 -8 34 8 98 6 25 3 24 -66 -26 -82 -61 -78 -55
-172 -214 -76 -129 -142 -263 -178 -362 -16 -43 -26 -60 -36 -56 -10 4 -27
-21 -56 -83 -51 -110 -59 -186 -33 -325 22 -123 14 -226 -21 -264 -16 -18 -24
-38 -24 -64 0 -20 -7 -46 -15 -57 -16 -21 -18 -16 -15 32 2 35 -9 47 -30 34
-11 -7 -12 -17 -2 -60 13 -56 15 -126 4 -150 -4 -8 -19 -16 -34 -17 -24 -1
-28 2 -28 25 -1 24 -2 25 -11 9 -6 -10 -13 -57 -16 -105 -4 -73 -2 -97 17
-152 12 -36 24 -89 27 -117 5 -46 2 -58 -22 -93 -23 -33 -27 -49 -26 -102 0
-47 -2 -59 -10 -48 -8 12 -9 9 -5 -10 3 -14 6 -50 6 -80 0 -55 1 -55 18 -32
18 23 18 22 45 -75 15 -54 34 -104 42 -112 11 -12 15 -7 23 30 8 38 6 46 -11
60 -11 9 -21 27 -22 40 -2 13 -5 58 -9 99 l-6 75 15 -46 c16 -47 55 -96 55
-68 0 8 -5 31 -11 52 -9 33 -8 42 7 58 14 16 16 35 12 131 -2 64 -9 122 -16
133 -10 17 -11 10 -6 -37 3 -32 4 -58 0 -58 -9 0 -33 52 -40 90 -16 80 -25
243 -15 261 13 24 33 25 27 1 -3 -11 2 -23 13 -30 20 -13 27 -7 38 34 6 23 10
19 60 -53 l54 -78 -1 -97 c0 -53 -6 -107 -12 -119 -9 -16 -9 -37 0 -85 7 -35
9 -84 6 -107 -4 -25 -2 -56 4 -73 11 -28 12 -28 23 -9 9 17 12 12 22 -40 6
-33 15 -70 19 -82 6 -18 4 -23 -11 -23 -10 0 -30 -14 -44 -32 -29 -35 -27 -35
-74 27 -13 18 -13 15 0 -24 19 -55 19 -62 -1 -54 -23 9 -34 -15 -34 -75 0 -59
13 -92 36 -92 12 0 14 -12 8 -72 -6 -66 1 -114 23 -176 4 -9 -26 17 -65 58
-39 41 -74 71 -78 68 -3 -4 12 -40 34 -81 35 -66 39 -78 28 -98 -9 -17 -9 -31
-3 -46 12 -26 30 -32 20 -6 -6 15 -3 14 23 -3 16 -11 42 -26 58 -34 16 -8 42
-33 58 -54 24 -33 28 -36 28 -17 0 29 -26 91 -49 116 -10 11 -27 34 -37 50
-10 17 34 -19 99 -80 120 -112 140 -139 152 -210 12 -70 11 -79 -9 -83 -23 -5
-46 23 -46 55 0 41 -42 24 -52 -22 -3 -15 -8 -9 -17 22 -6 23 -16 45 -22 49
-8 4 -9 -1 -4 -17 4 -13 -7 -3 -23 23 -38 58 -99 126 -126 140 -20 10 -20 10
-4 -8 9 -11 20 -44 24 -74 l7 -55 -36 40 c-50 56 -46 25 5 -41 47 -59 58 -65
58 -32 0 17 9 9 34 -32 19 -30 38 -68 42 -85 7 -28 6 -29 -10 -13 -14 14 -21
15 -41 6 l-25 -11 21 -15 c12 -8 35 -16 52 -17 29 -2 33 -6 38 -41 3 -22 7
-31 8 -20 2 29 23 6 88 -98 72 -116 143 -206 188 -241 52 -39 55 -23 6 30 -24
27 -41 54 -41 69 0 18 -8 27 -29 34 -16 6 -42 29 -58 54 -66 98 -68 162 -2 80
21 -27 64 -67 96 -88 32 -21 61 -43 65 -49 4 -5 8 -6 8 -2 0 14 29 -19 75 -89
49 -72 53 -84 30 -84 -8 0 -15 -4 -15 -9 0 -25 74 -112 135 -159 113 -86 182
-157 188 -194 7 -48 30 -104 53 -129 19 -21 128 -79 150 -79 6 0 23 -17 37
-37 40 -60 76 -93 100 -93 27 0 194 -125 202 -151 7 -20 47 -35 65 -24 14 8
63 -23 55 -35 -7 -12 75 -67 127 -85 l43 -15 -38 36 c-21 20 -36 38 -33 41 10
10 78 -15 124 -44 40 -26 41 -28 20 -34 -28 -7 -25 -28 8 -52 13 -10 24 -24
24 -32 0 -15 74 -48 157 -70 32 -9 121 -18 198 -21 123 -5 157 -10 280 -45
216 -61 411 -88 440 -60 6 5 29 12 52 16 40 6 44 5 53 -19 6 -17 17 -26 30
-26 13 0 19 -4 14 -11 -5 -8 -40 -9 -118 -5 -110 7 -111 7 -87 -12 21 -17 21
-20 6 -25 -9 -4 -29 -7 -43 -7 -34 0 -57 -14 -48 -29 5 -7 15 -6 31 5 30 19
96 25 156 13 85 -16 205 -21 243 -10 33 9 46 7 85 -11 25 -11 50 -27 54 -34
18 -30 266 -5 351 36 23 11 31 17 18 14 -21 -5 -22 -3 -16 22 6 25 5 27 -20
22 -59 -11 -7 12 71 31 l83 21 20 -20 c27 -27 26 -28 -16 -36 -24 -4 -32 -10
-25 -17 6 -6 32 -1 77 17 80 32 96 27 25 -8 -58 -30 -68 -42 -16 -21 33 14
110 28 226 40 133 15 138 17 301 147 122 98 163 126 203 136 28 7 100 37 162
67 71 34 110 48 106 38 -8 -20 19 -5 142 75 76 51 93 58 112 49 19 -9 30 -3
80 43 32 29 87 75 122 102 63 47 67 58 17 38 -19 -7 -26 -6 -26 2 0 7 -13 -1
-30 -17 -16 -15 -27 -32 -24 -36 7 -12 -17 -22 -58 -23 -21 -1 -38 0 -38 1 0
4 143 139 151 141 5 2 9 -4 9 -13 0 -9 4 -14 9 -10 6 3 4 20 -5 40 -15 38 -14
39 48 59 9 3 37 40 63 83 25 43 56 92 70 108 22 27 25 28 25 9 0 -11 -11 -42
-24 -69 l-25 -48 37 34 36 34 -19 -30 c-10 -16 -45 -63 -77 -103 -57 -72 -67
-95 -49 -107 16 -9 183 223 238 330 31 61 63 109 82 122 16 13 48 53 71 90 49
82 69 106 99 123 19 9 25 9 31 0 17 -27 135 226 160 341 11 49 17 59 46 72 53
26 100 143 50 124 -47 -18 -37 77 14 142 16 20 45 74 65 121 20 47 43 92 51
101 15 17 19 75 5 83 -5 3 -14 -14 -20 -39 -6 -25 -16 -45 -21 -45 -17 0 -11
55 12 117 24 66 38 86 39 58 1 -46 17 24 26 111 14 150 9 341 -11 408 -9 32
-19 56 -22 53 -3 -3 0 -23 6 -44 7 -21 10 -50 8 -63 -5 -24 -5 -24 -18 8 -7
20 -16 30 -22 24 -5 -5 -5 -20 2 -36 12 -33 13 -83 2 -90 -5 -3 -17 23 -27 57
l-17 62 -16 -32 c-9 -18 -19 -33 -22 -33 -4 0 -27 62 -51 138 l-44 137 -3 -67
c-2 -46 5 -99 23 -170 27 -110 31 -180 15 -239 -11 -39 -38 -48 -53 -19 -4 8
-5 2 -1 -15 11 -57 11 -200 0 -240 l-12 -40 -19 29 c-10 16 -19 43 -19 62 0
18 -4 30 -8 28 -4 -3 -8 -14 -8 -25 0 -45 -81 -414 -110 -500 -47 -141 -159
-345 -161 -293 -1 25 -27 -43 -28 -74 -1 -13 -5 -21 -10 -17 -5 3 -12 -3 -15
-13 -4 -11 -45 -59 -91 -108 -47 -49 -93 -101 -102 -116 -26 -42 -38 -33 -13
10 l22 37 -27 -30 c-50 -57 -73 -90 -109 -161 -38 -75 -126 -186 -126 -160 0
44 -69 0 -202 -129 -63 -61 -177 -156 -257 -214 -122 -88 -145 -101 -153 -87
-13 23 -24 21 -118 -25 -64 -31 -93 -40 -120 -36 -35 4 -79 -12 -112 -41 -27
-23 -22 -32 11 -21 19 7 36 7 46 1 14 -7 1 -16 -58 -45 -42 -19 -80 -45 -87
-56 -11 -21 -19 -22 -82 -4 -12 3 -18 -1 -18 -12 0 -9 -13 -30 -29 -46 -26
-25 -33 -28 -56 -19 -35 13 -35 13 -35 -14 0 -25 -16 -36 -56 -36 l-24 0 31
43 c37 51 23 60 -41 27 -23 -12 -45 -18 -48 -15 -4 4 15 27 41 51 l49 44 -47
0 c-35 0 -57 -7 -88 -29 -98 -66 -216 -111 -295 -111 l-45 0 27 21 c20 16 24
24 16 34 -8 10 -28 6 -97 -17 -75 -26 -92 -29 -119 -19 -17 6 -45 8 -62 5 -32
-6 -185 34 -177 47 2 3 -19 0 -48 -8 -63 -16 -145 -16 -173 0 -30 17 -124 106
-124 117 0 16 -51 37 -135 55 -44 10 -94 23 -111 30 l-32 13 14 -26 c8 -15 14
-35 14 -44 0 -27 19 -31 60 -13 28 13 50 15 77 10 35 -6 36 -8 19 -20 -10 -8
-39 -17 -65 -20 -25 -3 -62 -9 -83 -13 -56 -13 -85 13 -97 87 -5 30 -12 36
-56 51 -28 10 -105 46 -173 80 -68 35 -135 63 -150 62 -15 0 -55 -1 -89 -3
-72 -3 -92 8 -170 88 -52 54 -73 65 -73 38 0 -9 -10 -15 -26 -15 -19 0 -25 -4
-20 -15 9 -25 -10 -17 -29 12 -13 19 -16 38 -12 73 6 46 5 48 -23 54 -20 4
-41 22 -70 63 -23 32 -58 73 -79 91 -35 32 -20 35 24 5 22 -15 55 -17 55 -4 0
5 -42 23 -92 40 -93 30 -93 30 -63 6 17 -14 24 -25 18 -25 -29 0 -92 72 -109
123 -9 29 -19 58 -22 66 -4 11 0 13 14 8 14 -5 13 -2 -6 13 -14 11 -35 30 -46
40 -12 11 -25 20 -30 20 -4 0 -50 29 -103 65 -74 50 -100 73 -113 102 -9 21
-24 56 -34 78 -10 22 -17 50 -16 63 2 28 -14 61 -39 82 -26 21 -227 555 -214
568 2 2 34 -1 72 -7 141 -22 141 -22 145 9 2 15 -4 42 -14 60 -17 33 -16 56 3
45 22 -14 6 16 -21 39 -17 14 -36 39 -41 56 -13 36 -32 41 -23 5 4 -15 2 -25
-5 -25 -6 0 -11 9 -11 20 0 10 -18 34 -40 51 -22 18 -43 44 -46 58 -3 14 -8
33 -10 42 -2 8 2 23 9 33 18 25 52 7 62 -31 7 -26 8 -25 20 22 l12 50 17 -60
c9 -33 20 -67 25 -75 7 -14 131 -64 138 -56 2 2 -12 13 -32 24 -26 16 -35 28
-35 48 0 27 0 27 22 8 14 -12 18 -13 10 -3 -14 19 -16 50 -7 101 10 51 -6 70
-46 56 -18 -6 -35 -21 -40 -36 -8 -21 -12 -23 -19 -12 -14 22 -1 81 23 108 19
20 19 22 3 22 -14 0 -17 5 -12 23 3 12 6 26 6 31 0 4 7 6 15 2 22 -8 18 0 -10
18 -24 16 -25 15 -41 -16 -11 -21 -15 -47 -12 -79 5 -46 4 -47 -26 -53 -35 -7
-56 12 -56 50 0 17 4 21 20 17 17 -5 18 -2 11 25 -13 45 -6 128 18 206 11 37
22 78 22 90 1 11 5 -14 9 -57 4 -43 13 -84 20 -90 10 -10 11 -1 7 38 -4 28 -9
64 -12 80 -5 25 -4 27 5 12 9 -14 15 -16 26 -6 17 14 19 39 3 39 -8 0 -10 17
-7 50 4 42 3 47 -7 33 -12 -15 -15 -12 -25 27 -7 25 -13 72 -13 105 0 71 23
205 35 205 13 0 28 -47 28 -91 0 -21 5 -39 10 -39 21 0 23 34 6 99 -14 53 -15
72 -5 99 8 24 14 30 23 22 9 -7 19 -3 36 14 22 25 22 25 6 98 -16 71 -16 76 3
119 28 65 35 93 22 85 -17 -11 -14 50 5 85 8 17 31 51 50 76 19 24 34 52 35
61 0 14 2 13 8 -3 7 -18 9 -18 23 10 16 32 30 72 48 143 10 37 13 42 26 31 13
-11 14 -9 9 14 -6 22 4 68 31 154 3 10 -8 -6 -24 -35 -17 -29 -53 -78 -81
-108 -37 -40 -56 -72 -69 -116 l-19 -61 -7 38 c-9 48 3 226 16 243 6 6 17 12
25 12 11 0 13 6 9 23 -4 12 -10 39 -13 59 -5 34 -3 39 20 47 40 15 59 54 67
136 7 75 41 149 65 142 21 -7 15 -48 -20 -138 -26 -68 -32 -94 -23 -100 9 -6
9 -16 0 -47 -16 -53 -15 -62 7 -62 15 0 21 8 23 33 2 24 8 32 23 32 15 0 21 8
23 31 2 20 16 43 38 65 33 31 36 33 48 17 18 -24 45 -23 73 4 25 23 44 18 24
-6 -7 -8 -11 -24 -9 -35 2 -12 -11 -34 -35 -59 -34 -35 -36 -40 -21 -53 14
-11 18 -11 31 6 39 50 76 148 81 213 l5 67 -21 -25 -21 -25 -16 23 c-9 12 -23
22 -31 22 -22 0 -12 23 14 35 14 6 23 22 27 47 6 35 9 38 40 38 19 0 78 16
131 35 112 41 137 43 158 14 15 -22 16 -22 43 -4 15 10 68 55 118 99 83 75
200 170 235 191 11 7 10 2 -4 -19 l-18 -29 38 8 c81 15 96 31 123 132 l11 41
88 7 87 7 60 58 c59 57 128 100 161 100 9 0 34 -18 54 -40 43 -46 72 -51 109
-16 35 31 188 69 246 60 52 -7 69 10 37 37 l-22 17 30 11 c17 5 36 8 43 5 7
-2 56 13 108 34 52 22 118 45 147 51 70 15 132 14 132 -1 0 -6 10 -22 22 -35
19 -20 20 -25 8 -33 -23 -15 -50 -12 -44 4 8 20 -34 46 -74 46 -18 0 -46 -7
-63 -15 -16 -9 -34 -13 -40 -9 -6 3 -5 -3 2 -14 10 -17 10 -28 -3 -61 -9 -23
-15 -41 -13 -41 2 0 16 5 31 10 26 10 118 16 281 19 71 1 85 4 110 25 l29 25
175 -35 c96 -19 197 -46 226 -59 29 -13 53 -19 55 -15 2 5 27 -9 56 -32 29
-23 48 -44 42 -48 -6 -4 2 -18 20 -35 16 -16 30 -32 30 -37 0 -12 -78 -10 -85
2 -3 6 -14 10 -23 10 -13 -1 -10 -6 11 -21 30 -23 27 -45 -4 -28 -11 5 -25 8
-32 6 -12 -4 24 -17 101 -37 25 -6 48 -20 58 -34 13 -21 23 -24 72 -24 31 0
70 -5 85 -11 37 -14 141 -117 132 -130 -3 -6 -1 -11 6 -11 7 0 26 -10 43 -23
50 -38 64 -42 26 -8 l-35 31 40 -6 c22 -3 45 -12 51 -20 15 -18 36 -18 78 2
45 22 70 14 134 -41 76 -68 71 -77 -35 -70 l-88 6 41 -19 c49 -23 114 -79 114
-97 0 -8 9 -16 20 -20 11 -3 28 -17 39 -30 18 -24 21 -24 76 -14 l58 11 51
-53 c28 -28 44 -48 36 -44 -8 5 -2 -6 14 -23 36 -38 28 -53 -11 -22 -18 14
-29 17 -31 10 -6 -17 22 -42 50 -45 12 -2 37 -10 53 -19 43 -23 58 -21 49 6
-6 20 -5 21 10 9 9 -7 21 -32 28 -55 6 -22 15 -45 20 -50 14 -17 9 -28 -12
-23 -32 8 -33 -9 -5 -58 35 -59 44 -63 51 -25 l7 31 30 -28 30 -28 -18 28
c-29 46 -11 40 24 -8 38 -54 64 -112 57 -131 -3 -7 -1 -16 4 -19 5 -3 44 -50
85 -105 72 -93 105 -124 105 -97 0 7 -9 23 -20 37 -21 26 -26 52 -11 47 5 -1
17 7 25 18 16 20 16 20 40 -7 14 -15 36 -65 50 -111 15 -47 35 -92 47 -103
l21 -19 -7 35 c-18 86 -58 206 -72 220 -14 13 -14 13 -4 -7 19 -37 13 -35 -47
14 -52 43 -75 77 -110 165 -2 4 1 8 7 8 6 0 25 -25 42 -55 46 -81 48 -59 4 35
-21 44 -40 78 -42 76 -3 -2 1 -15 8 -28 l12 -23 -23 20 c-12 11 -55 63 -95
115 -40 52 -84 107 -98 122 -14 15 -23 29 -20 32 3 2 0 21 -7 41 -7 20 -10 38
-7 41 10 10 38 -10 43 -33 4 -16 10 -21 16 -15 7 7 3 20 -11 40 -11 17 -21 35
-21 40 0 16 -82 55 -90 42 -4 -6 -30 14 -64 50 -32 33 -64 60 -72 60 -16 0
-105 66 -117 87 -5 8 -6 17 -4 20 11 10 149 -72 169 -100 15 -21 23 -25 33
-17 9 8 42 -9 126 -66 136 -91 188 -139 235 -219 20 -33 47 -72 62 -87 14 -16
22 -28 18 -28 -10 0 30 -56 86 -118 48 -52 57 -58 38 -21 -22 40 11 18 53 -36
31 -41 47 -53 60 -49 28 9 55 -23 73 -87 9 -32 23 -64 30 -70 12 -9 14 -3 14
34 0 33 -6 53 -24 74 -55 67 -71 127 -53 198 l14 50 39 -3 39 -3 -36 33 c-20
18 -55 48 -78 66 -23 18 -39 38 -35 43 3 5 -3 17 -14 27 -21 18 -42 72 -42
106 1 18 5 17 31 -14 34 -40 37 -52 -35 133 -25 65 -46 134 -46 155 0 30 -10
49 -52 100 -52 62 -53 63 -95 56 -31 -5 -50 -2 -68 10 -13 9 -27 16 -29 16
-11 0 55 -88 70 -94 27 -10 28 -7 5 17 l-22 24 43 -1 c38 -1 45 -5 69 -41 26
-38 84 -215 71 -215 -3 0 -18 12 -34 27 -15 14 -36 27 -45 28 -21 2 -123 95
-123 111 0 6 -22 31 -48 56 -26 25 -46 50 -44 56 5 17 -39 37 -48 22 -13 -21
-58 -2 -76 31 -15 31 -15 32 10 57 l25 26 41 -19 c31 -14 45 -16 63 -8 23 11
58 1 99 -29 13 -9 21 -9 28 -2 18 18 1 60 -50 118 -40 46 -49 52 -53 36 -3
-11 -17 -24 -31 -30 -20 -7 -26 -16 -26 -40 l0 -30 -32 20 c-18 11 -66 27
-107 36 -57 13 -83 25 -112 51 -21 19 -41 43 -44 52 -4 12 -19 20 -46 24 -31
4 -48 14 -74 44 -31 36 -32 38 -12 41 11 2 52 -13 90 -32 38 -20 72 -34 76
-31 3 4 -10 21 -30 40 -27 25 -55 37 -110 50 -40 9 -90 26 -111 37 -36 20 -57
52 -44 65 3 4 41 -10 84 -30 97 -46 112 -46 67 -2 -34 35 -44 55 -26 55 5 0
15 -7 22 -16 7 -9 37 -27 65 -41 50 -23 109 -73 87 -73 -25 0 2 -40 45 -68 26
-17 75 -55 109 -86 33 -31 64 -56 67 -56 31 0 -64 122 -129 166 -22 14 -74 59
-116 99 -42 39 -88 75 -104 79 -37 9 -87 45 -80 57 4 5 18 6 33 3 27 -7 27 -7
8 15 -21 24 -38 26 -64 10 -30 -19 -99 24 -193 122 -70 72 -92 89 -116 89 -57
0 -520 180 -515 200 1 7 0 20 -3 30 -5 16 -9 17 -52 4 -25 -8 -77 -14 -115
-14 -37 0 -68 -3 -68 -7 0 -5 22 -18 48 -30 l47 -21 -83 -1 c-51 -1 -96 4
-117 13 -29 12 -33 12 -28 0 9 -24 -25 -27 -171 -14 -77 7 -173 13 -213 14
-39 2 -78 8 -86 14 -8 7 -42 15 -76 18 -33 4 -61 7 -61 8 0 1 4 16 9 34 9 29
7 33 -15 38 -41 11 -114 -2 -146 -26 -36 -27 -63 -23 -63 9 0 20 10 28 64 48
67 25 138 28 134 6 -3 -15 94 -18 116 -4 8 5 19 24 25 42 7 22 19 35 36 39 20
5 10 10 -47 23 -69 16 -109 19 -163 10z m-356 -444 c-4 -8 1 -9 17 -3 28 11
201 10 285 -1 l59 -7 -35 -17 c-25 -12 -34 -23 -33 -38 2 -16 -6 -23 -41 -33
-59 -16 -162 -18 -178 -2 -9 9 -5 12 20 12 32 0 44 16 18 26 -8 3 -56 -7 -108
-23 -70 -22 -95 -34 -103 -51 -11 -25 -43 -29 -94 -11 -35 12 -38 21 -16 39 9
7 13 15 11 17 -6 7 -296 -90 -296 -98 0 -10 41 -19 93 -19 49 0 62 -15 33 -39
-8 -7 -18 -25 -21 -41 -9 -43 -27 -52 -110 -57 -88 -4 -99 10 -38 52 21 14 34
25 29 25 -4 0 -21 -9 -37 -21 -16 -11 -35 -19 -42 -16 -15 5 -107 -40 -107
-53 0 -6 16 -4 36 5 20 8 44 15 53 15 30 -1 -40 -50 -136 -95 -110 -52 -182
-75 -237 -75 -58 0 -71 -12 -71 -62 0 -42 -1 -43 -60 -73 -38 -19 -61 -37 -63
-50 -2 -11 -8 -24 -13 -29 -5 -6 -9 -22 -9 -36 0 -19 -9 -30 -35 -44 -19 -11
-35 -25 -35 -33 0 -21 18 -15 67 22 52 39 56 41 72 21 10 -12 8 -17 -9 -26
-11 -6 -18 -16 -14 -21 8 -13 41 17 50 45 10 33 35 56 61 56 12 0 23 -4 23
-10 0 -5 -5 -10 -12 -10 -17 0 -48 -31 -48 -49 0 -18 -159 -171 -178 -171 -25
0 -24 31 3 66 37 49 25 53 -18 5 l-35 -39 -6 40 c-4 21 -4 43 -1 48 3 5 -15
-2 -40 -16 -24 -14 -47 -30 -50 -35 -4 -5 -13 -4 -23 2 -13 8 -30 4 -72 -15
-30 -14 -56 -23 -59 -21 -15 16 96 87 157 100 18 4 61 24 95 44 57 35 62 41
65 76 l3 38 -47 -42 c-34 -30 -50 -38 -59 -31 -10 8 -19 3 -35 -20 -12 -17
-24 -29 -26 -27 -8 8 34 126 56 157 l23 32 -49 -25 c-53 -28 -129 -102 -188
-184 -37 -52 -84 -93 -111 -97 -7 -1 -47 -34 -87 -72 -92 -87 -147 -115 -241
-122 l-70 -5 22 39 c40 70 48 79 66 64 22 -19 43 3 138 145 101 152 157 222
202 258 47 38 55 29 14 -17 -17 -20 -29 -39 -26 -42 8 -9 56 60 70 102 9 24
27 48 47 62 40 27 53 21 19 -9 -21 -18 -21 -20 -4 -13 11 4 30 8 41 9 12 1 42
19 67 41 58 51 159 104 316 168 69 28 125 56 124 61 -2 12 57 75 70 75 5 0 7
-8 5 -17 -4 -15 2 -18 30 -19 31 -1 62 -23 62 -44 0 -3 -29 -19 -65 -35 -36
-16 -65 -31 -65 -34 0 -9 103 -7 115 2 6 4 22 16 38 28 15 11 27 29 27 40 0
10 29 50 66 88 58 62 73 72 141 95 42 14 79 23 84 20 5 -3 25 6 45 20 l36 24
22 -23 c36 -39 65 -40 165 -5 125 43 208 59 195 39z m1062 -87 c-5 -8 75 -28
188 -48 35 -6 37 -8 22 -20 -17 -12 -17 -13 1 -22 10 -6 46 -16 81 -22 34 -7
65 -16 68 -21 2 -5 18 -6 34 -2 16 3 41 2 56 -1 21 -6 25 -11 20 -31 -7 -28
15 -48 92 -84 29 -14 52 -28 52 -33 0 -4 -25 -8 -56 -8 l-56 0 23 -20 24 -19
-88 -1 c-56 0 -86 -4 -82 -10 3 -5 39 -10 78 -10 83 0 108 -10 91 -37 -16 -26
-54 -43 -94 -43 -37 1 -85 29 -62 37 21 8 14 35 -7 28 -13 -4 -31 4 -55 25
-29 26 -41 30 -66 25 -23 -5 -35 -1 -55 19 -27 27 -34 62 -11 53 10 -4 16 2
18 16 2 16 10 22 27 21 23 -1 23 0 5 13 -11 8 -28 11 -39 7 -11 -3 -33 -7 -50
-8 -27 -1 -30 3 -33 30 -2 24 -11 35 -40 49 -114 55 -284 89 -252 50 10 -12
10 -15 -4 -15 -9 0 -16 -4 -16 -10 0 -5 9 -10 19 -10 10 0 29 -9 42 -20 l24
-19 -25 0 c-28 0 -164 16 -195 24 -11 3 2 -6 29 -18 l49 -24 -101 -25 -101
-26 -58 19 c-32 11 -61 23 -65 27 -4 4 13 15 38 24 42 15 45 15 55 -3 9 -18
11 -18 34 -3 34 22 32 29 -17 44 -48 14 -142 59 -136 65 2 2 53 5 113 6 111 1
452 26 470 33 16 7 17 7 11 -2z m-3160 -1450 c-9 -33 -16 -79 -16 -102 0 -50
-24 -106 -55 -126 -16 -10 -20 -21 -17 -42 2 -15 -5 -50 -16 -78 -11 -28 -25
-77 -31 -110 -9 -52 -16 -64 -60 -104 -46 -42 -79 -96 -66 -108 3 -3 14 3 26
14 20 18 20 18 15 -6 -3 -14 -10 -52 -16 -85 -14 -73 -41 -167 -52 -179 -16
-19 -18 2 -3 37 21 51 19 55 -15 22 -36 -34 -45 -29 -35 22 9 47 9 47 -3 51
-6 2 -12 -7 -15 -20 -3 -20 -5 -19 -12 9 -4 18 -12 30 -17 27 -29 -18 31 106
66 135 14 12 16 9 17 -25 l1 -39 13 30 c7 17 17 48 21 70 l7 40 -19 -22 c-14
-16 -25 -21 -41 -17 -29 8 -29 11 6 119 34 101 74 151 116 141 20 -5 24 0 39
52 20 71 20 81 2 57 -8 -11 -26 -19 -42 -20 -24 0 -30 -5 -34 -30 -3 -16 -10
-30 -15 -30 -20 0 -16 37 8 78 27 46 67 87 67 69 0 -7 9 -12 20 -12 15 0 20 7
20 25 0 36 -26 42 -57 14 l-25 -24 7 55 c9 66 49 160 67 160 8 0 24 -7 37 -16
17 -12 26 -13 34 -5 23 23 27 9 7 -29 -11 -22 -17 -40 -12 -40 15 0 38 32 62
85 29 63 37 40 16 -43z m-389 -923 c13 -13 5 -56 -13 -63 -11 -4 -14 4 -14 34
0 40 7 49 27 29z m-157 -106 c13 -32 45 -105 71 -163 l48 -105 -8 -98 c-4 -54
-11 -100 -15 -104 -3 -3 -6 43 -6 103 0 60 -3 119 -6 132 -15 54 -57 11 -119
-121 -26 -53 -47 -97 -49 -97 -2 0 6 87 19 195 9 71 25 176 32 204 4 17 2 22
-6 17 -12 -8 -17 75 -4 87 14 14 21 5 43 -50z m413 -348 c4 -8 2 -17 -3 -20
-6 -4 -10 3 -10 14 0 25 6 27 13 6z m-271 -262 c9 -10 23 -34 33 -53 10 -19
26 -44 36 -56 22 -24 37 -118 21 -128 -5 -3 -15 7 -20 23 -6 16 -22 37 -37 47
-23 15 -26 23 -22 51 7 39 -11 41 -29 4 -9 -17 -13 -19 -22 -9 -8 11 -9 37 -3
126 1 18 25 15 43 -5z m-483 -366 c1 -5 -3 -5 -9 -2 -5 3 -10 16 -9 28 0 21 1
21 9 2 5 -11 9 -24 9 -28z m530 -266 c12 -8 12 -12 2 -25 -19 -23 -31 -20 -31
9 0 27 6 30 29 16z m72 -173 c40 -61 169 -319 169 -337 0 -24 -25 -4 -58 45
-41 63 -55 67 -36 11 8 -25 38 -69 68 -102 46 -49 58 -57 79 -51 18 4 26 1 30
-12 2 -9 8 -24 11 -32 5 -12 -1 -16 -29 -18 -42 -3 -78 19 -116 72 -34 46 -36
43 -9 -20 21 -48 22 -65 2 -41 -15 17 -124 299 -118 304 4 4 10 -5 43 -67 10
-20 13 -21 13 -7 0 11 -23 73 -51 139 -35 82 -49 128 -45 144 4 13 8 24 10 24
2 0 19 -24 37 -52z"/>
<path d="M2755 6310 c-7 -12 12 -12 40 0 18 8 17 9 -7 9 -15 1 -30 -3 -33 -9z"/>
<path d="M2715 6290 c-3 -6 1 -7 9 -4 18 7 21 14 7 14 -6 0 -13 -4 -16 -10z"/>
<path d="M2434 6186 c-22 -17 -11 -35 13 -20 19 12 29 34 16 34 -5 0 -18 -6
-29 -14z"/>
<path d="M2285 6129 c-16 -5 -43 -9 -60 -8 -16 1 -50 -7 -75 -18 -25 -11 -56
-24 -70 -28 l-25 -9 24 -5 24 -6 -28 -33 c-25 -30 -65 -44 -65 -22 0 20 -26 9
-65 -26 l-40 -36 38 26 37 27 0 -26 0 -25 40 26 c31 21 44 24 52 16 17 -17 43
-15 58 3 7 9 18 14 24 12 6 -3 21 5 34 16 12 11 50 39 84 61 85 56 90 79 13
55z"/>
<path d="M1566 5670 c-27 -9 -45 -25 -46 -42 0 -15 16 -8 50 22 19 16 33 29
30 29 -3 -1 -18 -5 -34 -9z"/>
<path d="M1410 5510 c-14 -20 -16 -28 -7 -24 13 5 42 54 32 54 -2 0 -13 -13
-25 -30z"/>
<path d="M4145 6360 c-3 -6 1 -7 9 -4 18 7 21 14 7 14 -6 0 -13 -4 -16 -10z"/>
<path d="M3970 6310 c0 -5 12 -10 26 -10 14 0 23 4 19 10 -3 6 -15 10 -26 10
-10 0 -19 -4 -19 -10z"/>
<path d="M4753 6216 c12 -27 19 -31 77 -41 l35 -6 -35 19 c-19 10 -47 26 -62
36 l-27 18 12 -26z"/>
<path d="M1107 4888 c-20 -31 -30 -68 -19 -68 10 0 45 81 38 88 -3 2 -11 -7
-19 -20z"/>
<path d="M3055 6955 c-38 -7 -99 -16 -135 -20 -174 -17 -219 -23 -307 -42 -75
-16 -84 -22 -58 -43 21 -17 19 -23 -15 -43 -25 -15 -31 -16 -36 -4 -3 8 -4 20
-2 28 2 8 -7 15 -19 17 -22 3 -59 -29 -142 -121 -33 -37 -19 -34 19 3 21 20
41 30 62 30 32 0 32 -2 13 -55 -5 -14 2 -11 24 13 19 19 42 32 57 32 33 0 80
25 127 67 41 37 65 48 135 64 31 7 48 7 56 -1 16 -16 49 -12 107 14 51 23 81
30 122 27 31 -2 18 -19 -20 -26 -42 -7 -127 -50 -146 -73 -10 -13 -8 -14 13
-8 67 19 159 36 198 36 46 0 50 4 27 26 -17 17 -20 60 -5 69 12 7 14 26 3 24
-5 -1 -39 -7 -78 -14z"/>
<path d="M3913 6963 c9 -2 25 -2 35 0 9 3 1 5 -18 5 -19 0 -27 -2 -17 -5z"/>
<path d="M4015 6944 c-6 -9 -30 -24 -54 -33 -55 -20 -68 -43 -19 -32 19 4 43
13 56 20 12 6 33 9 49 5 l27 -7 -23 31 c-12 18 -23 32 -24 32 -1 0 -7 -7 -12
-16z"/>
<path d="M3233 6928 c28 -7 42 -7 50 1 8 8 -2 11 -38 10 l-50 -1 38 -10z"/>
<path d="M2738 6829 c-36 -19 -47 -29 -30 -29 4 0 25 11 47 25 48 29 36 32
-17 4z"/>
<path d="M3910 6789 c32 -28 40 -30 85 -25 28 3 117 9 200 12 140 7 147 8 112
20 -48 17 -83 18 -232 9 -78 -5 -134 -4 -160 3 l-40 11 35 -30z"/>
<path d="M4055 6743 c23 -16 38 -17 33 -1 -2 6 -15 12 -28 13 -21 2 -22 1 -5
-12z"/>
<path d="M5764 6191 c21 -23 57 -35 50 -16 -5 11 -46 35 -61 35 -3 0 2 -9 11
-19z"/>
<path d="M3530 6158 c-27 -8 -31 -12 -19 -18 21 -12 59 -1 59 16 0 8 -1 14 -2
13 -2 0 -19 -5 -38 -11z"/>
<path d="M1054 5952 c-45 -48 -94 -103 -110 -122 -29 -36 -21 -31 50 29 24 20
46 31 57 28 20 -5 59 37 59 65 1 7 7 30 14 51 8 20 13 37 12 36 0 0 -38 -39
-82 -87z"/>
<path d="M4460 6010 c-13 -8 -13 -10 2 -10 9 0 20 5 23 10 8 13 -5 13 -25 0z"/>
<path d="M2884 5998 c-4 -7 -14 -23 -22 -35 -8 -13 -10 -23 -5 -23 5 0 17 16
26 35 16 33 16 49 1 23z"/>
<path d="M4410 5934 c0 -10 58 -31 69 -25 8 5 -2 12 -28 19 -23 5 -41 8 -41 6z"/>
<path d="M821 5704 c-12 -15 -21 -31 -21 -37 0 -6 1 -8 3 -6 1 2 15 19 31 37
17 17 25 32 19 32 -7 0 -21 -12 -32 -26z"/>
<path d="M1765 5420 c-18 -20 -18 -21 1 -34 19 -14 18 -15 -6 -43 -16 -18 -18
-22 -4 -11 34 29 79 41 104 28 19 -10 21 -9 18 7 -2 13 -14 19 -47 21 -40 3
-43 5 -38 28 5 29 -4 31 -28 4z"/>
<path d="M731 5354 c-26 -34 -27 -53 -2 -30 11 10 25 15 30 11 7 -3 11 2 11
14 0 31 -17 34 -39 5z"/>
<path d="M1542 5092 c-46 -111 -57 -151 -45 -163 8 -8 18 0 37 29 29 47 43 92
28 92 -7 0 -7 12 -1 36 17 61 5 65 -19 6z"/>
<path d="M6620 4873 c0 -7 4 -14 9 -17 12 -8 65 -119 85 -179 22 -65 21 -80
-4 -72 -20 6 -20 6 -1 -27 11 -18 25 -51 31 -73 10 -34 16 -40 41 -42 l29 -2
-26 45 c-15 25 -24 48 -20 51 8 8 46 -27 46 -42 0 -6 14 -21 30 -34 25 -18 31
-19 36 -7 7 19 -71 186 -124 262 -43 64 -132 155 -132 137z"/>
<path d="M6355 4829 c4 -13 2 -25 -5 -29 -9 -6 -4 -13 17 -24 42 -21 46 -11
16 35 -29 44 -38 49 -28 18z"/>
<path d="M5918 4833 c7 -3 16 -2 19 1 4 3 -2 6 -13 5 -11 0 -14 -3 -6 -6z"/>
<path d="M6608 4825 c23 -48 52 -194 43 -217 -8 -22 -9 -22 -31 15 -23 39 -29
45 -26 24 2 -19 73 -109 83 -105 4 2 7 7 5 13 -2 5 -5 39 -6 75 -3 65 -32 159
-62 196 -15 19 -15 19 -6 -1z"/>
<path d="M6445 4749 c22 -38 47 -69 56 -69 13 0 -34 73 -51 78 -8 3 -10 0 -5
-9z"/>
<path d="M6433 4700 c4 -14 7 -28 7 -31 0 -4 7 -9 15 -13 13 -5 13 -1 -1 27
-22 42 -28 48 -21 17z"/>
<path d="M6130 4514 c1 -12 39 -61 40 -51 0 5 -9 20 -20 34 -11 14 -20 22 -20
17z"/>
<path d="M6598 4504 c-8 -7 40 -114 63 -139 20 -23 39 -115 39 -191 0 -63 18
-79 76 -68 27 5 34 10 29 23 -15 36 -23 71 -17 71 4 0 27 -30 51 -65 24 -36
48 -65 52 -65 22 0 26 97 8 195 -12 60 -13 61 -35 51 -18 -8 -24 -19 -24 -43
0 -40 -5 -40 -49 -3 -29 25 -35 38 -43 92 -8 59 -36 108 -61 108 -9 0 -6 -30
8 -63 5 -12 3 -16 -7 -12 -8 3 -26 30 -41 60 -25 52 -36 63 -49 49z"/>
<path d="M6274 4469 c15 -17 33 -44 42 -60 14 -28 14 -29 -10 -29 -18 0 -30
10 -46 38 -21 37 -57 68 -67 59 -8 -9 34 -81 62 -107 15 -14 41 -45 56 -69
l29 -45 0 62 c0 67 -18 123 -52 159 -32 35 -44 27 -14 -8z"/>
<path d="M2303 4480 c-88 -13 -102 -19 -109 -45 -5 -20 -16 -26 -61 -36 -34
-8 -61 -21 -70 -33 -8 -12 -116 -264 -239 -561 l-224 -540 23 -19 c12 -10 29
-23 38 -30 14 -9 15 -23 10 -86 -9 -91 3 -237 24 -307 35 -115 118 -193 229
-214 154 -28 437 59 700 216 88 52 94 58 100 95 13 82 17 86 81 80 l57 -5 27
-85 c49 -151 63 -167 190 -224 l84 -37 39 26 c21 14 38 29 38 33 0 79 78 618
115 791 14 68 14 76 -1 100 -28 44 -57 71 -75 71 -10 0 -68 -25 -129 -56 -152
-77 -257 -177 -383 -363 -33 -47 -37 -60 -37 -115 l0 -62 -64 -27 c-128 -52
-284 -77 -399 -63 -89 11 -91 15 -96 156 -4 156 11 277 59 465 60 235 230 685
271 714 15 11 19 26 19 80 0 39 -5 72 -12 79 -13 13 -120 14 -205 2z"/>
<path d="M5425 4373 c-65 -14 -73 -23 -189 -222 -346 -594 -503 -917 -527
-1086 -9 -67 3 -240 25 -358 19 -98 54 -214 67 -222 5 -4 32 -1 58 6 42 10 53
19 72 53 57 104 172 259 259 349 l94 99 34 -38 c78 -91 144 -185 174 -251 l33
-70 83 78 c75 70 82 80 72 99 -9 18 -6 28 26 71 l37 50 -12 116 c-11 107 -47
341 -72 461 l-10 52 -60 0 c-48 0 -61 -4 -71 -20 -9 -14 -24 -20 -48 -20 -32
0 -39 -7 -87 -73 -53 -74 -243 -368 -304 -469 -32 -54 -51 -69 -63 -49 -3 4
47 138 110 297 106 264 120 293 164 340 62 65 111 142 171 268 81 170 170 467
154 516 -3 10 -20 20 -37 24 -33 7 -121 6 -153 -1z"/>
<path d="M3325 4213 c-83 -20 -209 -68 -233 -88 -16 -13 -70 -71 -120 -128
l-91 -105 87 -56 c49 -30 96 -58 104 -61 15 -6 114 74 287 232 l64 58 -36 78
c-20 42 -37 76 -39 76 -2 -1 -12 -4 -23 -6z"/>
<path d="M137 4168 c-3 -18 -8 -41 -12 -50 -5 -13 -2 -15 14 -11 18 5 20 10
15 47 -9 52 -10 54 -17 14z"/>
<path d="M6751 4015 c-1 -28 -5 -55 -10 -60 -12 -14 24 -95 43 -95 16 0 26
-21 26 -57 0 -20 -4 -24 -20 -20 -22 6 -22 7 6 -93 l12 -45 1 43 c1 42 14 56
25 26 3 -9 6 -44 6 -78 0 -36 6 -70 13 -80 11 -16 13 -1 10 95 -2 63 -5 132
-7 154 -4 45 2 67 15 59 14 -8 11 22 -5 61 -10 23 -27 40 -53 52 -27 13 -41
28 -50 53 l-12 35 0 -50z"/>
<path d="M1100 3806 c0 -19 -3 -42 -7 -52 -4 -12 -2 -15 8 -12 9 3 13 16 11
39 l-2 34 19 -35 c24 -41 27 -25 7 25 -19 45 -36 45 -36 1z"/>
<path d="M183 3745 c0 -33 2 -45 4 -27 2 18 2 45 0 60 -2 15 -4 0 -4 -33z"/>
<path d="M3681 3771 c-62 -22 -61 -21 -92 -112 l-23 -68 22 -24 c14 -14 22
-36 22 -58 0 -19 -25 -179 -56 -355 -32 -177 -54 -329 -51 -338 5 -14 24 -16
126 -16 l120 0 152 180 c84 100 155 177 159 173 4 -4 15 -64 24 -133 43 -317
89 -420 188 -420 45 0 165 38 239 75 51 26 65 57 33 69 -15 6 -16 24 -10 166
20 497 19 473 3 513 -24 56 -66 71 -202 70 -89 -1 -132 -7 -225 -31 -63 -17
-123 -34 -132 -37 -17 -7 -18 3 -18 116 0 141 -9 185 -46 220 -35 33 -153 38
-233 10z"/>
<path d="M6392 3290 c1 -106 14 -167 18 -85 3 74 1 116 -9 150 -7 22 -9 6 -9
-65z"/>
<path d="M102 3215 c0 -11 6 -36 13 -55 12 -31 14 -32 14 -10 0 14 -6 39 -14
55 -10 23 -13 25 -13 10z"/>
<path d="M242 3210 c0 -14 2 -19 5 -12 2 6 2 18 0 25 -3 6 -5 1 -5 -13z"/>
<path d="M6830 2405 c-7 -9 -11 -17 -9 -20 3 -2 10 5 17 15 14 24 10 26 -8 5z"/>
<path d="M466 1961 c14 -108 39 -183 80 -242 36 -53 41 -49 8 6 -30 52 -27 68
6 33 33 -35 57 -88 69 -152 11 -62 37 -116 59 -124 7 -2 12 5 12 17 0 37 16
30 82 -37 60 -61 67 -72 73 -121 6 -47 5 -53 -9 -48 -27 11 -18 -11 23 -52 26
-26 64 -48 122 -70 46 -18 109 -51 139 -73 59 -45 55 -37 -35 61 -26 29 -33
40 -18 32 30 -15 33 -14 34 12 0 21 1 21 12 3 7 -10 29 -40 50 -67 43 -56 45
-64 15 -48 -34 17 34 -52 107 -110 76 -60 86 -66 79 -47 -8 20 9 21 25 2 14
-17 115 -62 161 -71 31 -6 33 -5 20 8 -8 9 -44 25 -79 37 -109 36 -162 69
-206 129 -32 45 -32 51 6 51 27 0 30 3 23 23 -3 12 -7 22 -8 22 0 1 -25 15
-55 33 -52 32 -78 38 -46 12 17 -14 20 -30 5 -30 -5 0 -39 27 -75 61 -40 38
-71 59 -79 56 -9 -4 -17 1 -21 12 -3 9 -29 58 -59 108 -29 50 -62 112 -71 137
-10 25 -22 46 -26 46 -13 0 -11 -24 4 -39 6 -8 -8 -2 -33 12 -30 17 -52 39
-65 65 -29 59 -39 63 -32 15 3 -24 4 -43 2 -43 -2 0 -25 36 -51 80 -26 44 -49
80 -52 80 -2 0 -2 -19 2 -42 l6 -43 -25 40 c-27 43 -31 43 -15 -2 9 -26 9 -27
-5 -9 -65 84 -154 282 -155 343 0 12 -4 24 -8 27 -5 3 -3 -39 4 -93z"/>
<path d="M1291 1934 c18 -20 48 -45 64 -56 19 -13 9 0 -25 35 -30 32 -59 57
-64 57 -6 0 6 -16 25 -36z"/>
<path d="M2135 1215 c11 -9 38 -26 60 -37 l40 -20 -20 21 c-11 11 -38 27 -60
36 -37 14 -38 14 -20 0z"/>
<path d="M6037 1140 c-3 -14 -20 -39 -38 -55 -31 -30 -31 -30 -24 -5 11 38 2
22 -33 -52 l-31 -68 76 74 c70 70 75 76 66 103 l-10 28 -6 -25z"/>
<path d="M5821 974 l-40 -46 22 -39 c12 -21 26 -39 30 -39 12 0 39 69 32 80
-4 6 -17 10 -31 10 -33 0 -22 18 22 36 19 8 34 21 34 29 0 28 -28 15 -69 -31z"/>
<path d="M1240 933 c34 -32 69 -62 76 -66 8 -4 14 -16 14 -25 0 -31 29 -62 58
-62 27 0 27 1 -13 34 -39 34 -39 35 -20 49 19 15 18 17 -29 59 -59 52 -76 63
-76 48 0 -6 -11 -5 -30 5 -50 26 -46 17 20 -42z"/>
<path d="M1520 781 c14 -28 -1 -33 -53 -17 -31 9 -44 10 -43 2 2 -6 39 -48 83
-92 67 -69 81 -79 90 -65 9 14 23 7 109 -50 54 -36 132 -80 172 -99 71 -32 89
-49 55 -51 -21 -1 80 -38 117 -43 14 -2 80 -29 147 -60 67 -31 126 -56 131
-56 5 0 15 -7 22 -15 7 -8 16 -12 21 -9 5 3 59 -13 121 -35 133 -47 346 -104
473 -126 249 -43 321 -51 570 -59 l150 -5 -78 16 c-67 14 -77 19 -71 35 4 15
0 18 -31 18 -46 0 -84 18 -64 31 18 11 76 11 117 0 20 -6 32 -6 32 0 0 12 -31
61 -45 71 -21 16 -87 7 -165 -22 -111 -41 -193 -41 -167 0 15 26 9 30 -60 40
-33 4 -77 17 -98 28 -34 19 -41 20 -72 7 -32 -14 -33 -13 -28 8 5 21 2 22 -59
23 -105 2 -355 59 -521 118 l-100 36 70 0 c56 1 66 3 51 12 -10 6 -47 13 -83
16 -69 5 -85 16 -57 37 18 14 18 14 -5 15 -13 0 -84 14 -158 31 -74 17 -137
28 -140 25 -4 -3 2 -15 12 -26 44 -48 -29 -29 -93 25 -42 36 -41 49 4 40 28
-5 35 -3 32 7 -4 9 -25 13 -71 13 -50 0 -71 4 -84 17 -45 45 37 44 176 -3 55
-18 56 -18 33 0 -12 11 -65 36 -118 56 -52 21 -110 48 -129 61 -42 28 -44 24
-8 -22 18 -24 23 -38 16 -45 -14 -14 -50 5 -141 75 -40 31 -68 48 -62 37z"/>
<path d="M1645 780 c10 -11 20 -20 23 -20 3 0 -3 9 -13 20 -10 11 -20 20 -23
20 -3 0 3 -9 13 -20z"/>
<path d="M5716 772 c-21 -14 -33 -28 -26 -30 7 -3 26 10 43 27 38 37 34 38
-17 3z"/>
<path d="M3975 740 c-11 -5 -33 -9 -50 -10 l-30 -2 28 -10 c15 -5 27 -14 27
-19 0 -5 14 0 30 13 43 31 40 47 -5 28z"/>
<path d="M3868 713 c7 -3 16 -2 19 1 4 3 -2 6 -13 5 -11 0 -14 -3 -6 -6z"/>
<path d="M5494 634 c-18 -14 -18 -15 4 -4 12 6 22 13 22 15 0 8 -5 6 -26 -11z"/>
<path d="M5380 580 c-8 -5 -10 -10 -5 -10 6 0 17 5 25 10 8 5 11 10 5 10 -5 0
-17 -5 -25 -10z"/>
<path d="M5330 549 c-33 -24 -77 -34 -95 -19 -11 9 -17 6 -31 -15 -9 -14 -31
-32 -48 -40 l-31 -13 28 -1 c15 -1 30 5 33 13 8 21 62 38 84 26 27 -15 67 -12
102 6 25 13 28 18 17 27 -8 7 -19 17 -24 24 -8 8 -17 6 -35 -8z"/>
<path d="M4810 361 c-74 -25 -149 -54 -167 -64 -18 -9 -37 -17 -43 -17 -13 0
-80 -52 -80 -62 0 -4 16 -4 35 -1 74 12 20 -23 -99 -64 -77 -26 -218 -45 -250
-34 -18 7 -17 9 10 15 16 4 49 20 74 36 49 31 108 50 154 50 28 0 28 1 13 18
-10 10 -14 22 -10 27 5 4 -1 5 -12 1 -54 -20 -189 -48 -337 -71 -346 -52 -379
-58 -366 -66 7 -5 21 -9 31 -9 38 0 13 -18 -55 -41 -87 -29 -107 -56 -32 -44
27 5 86 7 132 6 83 -3 98 4 62 27 -11 7 -20 19 -20 27 0 21 85 10 121 -15 43
-31 73 -33 181 -15 155 25 218 40 388 90 152 44 423 145 456 170 20 14 11 35
-15 35 -26 0 -44 23 -29 38 17 17 9 15 -142 -37z"/>
<path d="M3530 270 c-8 -5 -10 -10 -5 -10 6 0 17 5 25 10 8 5 11 10 5 10 -5 0
-17 -5 -25 -10z"/>
<path d="M3738 3 c12 -2 32 -2 45 0 12 2 2 4 -23 4 -25 0 -35 -2 -22 -4z"/>
</g>
</svg>
